<svg xmlns="http://www.w3.org/2000/svg" version="1.1" xmlns:xlink="http://www.w3.org/1999/xlink" xmlns:svgjs="http://svgjs.com/svgjs" width="1440" height="560" preserveAspectRatio="none" viewBox="0 0 1440 560"><g mask="url(&quot;#SvgjsMask1000&quot;)" fill="none"><rect width="1440" height="560" x="0" y="0" fill="#0e2a47"></rect><path d="M636.9 452.29L636.9 455.55L645.95 455.55L645.95 452.29zM640.17 453.92 a5.78 5.78 0 1 0 11.56 0 a5.78 5.78 0 1 0 -11.56 0zM632.78 476.25L631.54 479.26L643.83 484.35L645.08 481.34zM638.68 482.85 a5.78 5.78 0 1 0 11.56 0 a5.78 5.78 0 1 0 -11.56 0zM619.81 496.8L617.51 499.11L638.52 520.12L640.83 517.82zM633.9 518.97 a5.78 5.78 0 1 0 11.56 0 a5.78 5.78 0 1 0 -11.56 0zM599.96 510.83L596.95 512.08L606.62 535.42L609.64 534.18zM602.35 534.8 a5.78 5.78 0 1 0 11.56 0 a5.78 5.78 0 1 0 -11.56 0zM576.26 516.19L573 516.19L573 524.86L576.26 524.86zM568.85 524.86 a5.78 5.78 0 1 0 11.56 0 a5.78 5.78 0 1 0 -11.56 0zM552.3 512.08L549.29 510.83L542.75 526.63L545.76 527.88zM538.47 527.25 a5.78 5.78 0 1 0 11.56 0 a5.78 5.78 0 1 0 -11.56 0zM531.75 499.11L529.44 496.8L512.07 514.18L514.37 516.48zM507.44 515.33 a5.78 5.78 0 1 0 11.56 0 a5.78 5.78 0 1 0 -11.56 0zM517.72 479.26L516.47 476.25L497.43 484.13L498.68 487.15zM492.27 485.64 a5.78 5.78 0 1 0 11.56 0 a5.78 5.78 0 1 0 -11.56 0zM512.35 455.55L512.35 452.29L502.85 452.29L502.85 455.55zM497.07 453.92 a5.78 5.78 0 1 0 11.56 0 a5.78 5.78 0 1 0 -11.56 0zM516.47 431.6L517.72 428.58L509.33 425.11L508.08 428.12zM502.93 426.62 a5.78 5.78 0 1 0 11.56 0 a5.78 5.78 0 1 0 -11.56 0zM529.44 411.04L531.75 408.73L510.06 387.05L507.75 389.35zM503.13 388.2 a5.78 5.78 0 1 0 11.56 0 a5.78 5.78 0 1 0 -11.56 0zM549.29 397.01L552.3 395.76L546.92 382.77L543.91 384.02zM539.64 383.4 a5.78 5.78 0 1 0 11.56 0 a5.78 5.78 0 1 0 -11.56 0zM573 391.65L576.26 391.65L576.26 369.94L573 369.94zM568.85 369.94 a5.78 5.78 0 1 0 11.56 0 a5.78 5.78 0 1 0 -11.56 0zM596.95 395.76L599.96 397.01L606.32 381.68L603.3 380.43zM599.03 381.05 a5.78 5.78 0 1 0 11.56 0 a5.78 5.78 0 1 0 -11.56 0zM617.51 408.73L619.81 411.04L634.36 396.5L632.05 394.19zM627.43 395.34 a5.78 5.78 0 1 0 11.56 0 a5.78 5.78 0 1 0 -11.56 0zM631.54 428.58L632.78 431.6L650.5 424.26L649.26 421.24zM644.1 422.75 a5.78 5.78 0 1 0 11.56 0 a5.78 5.78 0 1 0 -11.56 0zM512.34 453.92 a62.29 62.29 0 1 0 124.58 0 a62.29 62.29 0 1 0 -124.58 0z" fill="#488fdb"></path><path d="M634.01 472.76 A61.294399999999996 61.294399999999996 0 0 1 528.71 496.02M528.71 496.02 A124.58879999999999 124.58879999999999 0 0 0 634.01 472.76" fill="#2672c3" fill-rule="nonzero"></path><path d="M522 485.98 a3.11 3.11 0 1 0 6.22 0 a3.11 3.11 0 1 0 -6.22 0zM513.9 464.73 a4.36 4.36 0 1 0 8.72 0 a4.36 4.36 0 1 0 -8.72 0zM561.52 508.44 a7.48 7.48 0 1 0 14.96 0 a7.48 7.48 0 1 0 -14.96 0zM530.87 450.01 a8.1 8.1 0 1 0 16.2 0 a8.1 8.1 0 1 0 -16.2 0zM539.82 491.69 a3.74 3.74 0 1 0 7.48 0 a3.74 3.74 0 1 0 -7.48 0zM565.4 483.99 a4.36 4.36 0 1 0 8.72 0 a4.36 4.36 0 1 0 -8.72 0zM607.7 471.43 a12.46 12.46 0 1 0 24.92 0 a12.46 12.46 0 1 0 -24.92 0zM559.56 453 a2.49 2.49 0 1 0 4.98 0 a2.49 2.49 0 1 0 -4.98 0zM575.66 445.33 a7.48 7.48 0 1 0 14.96 0 a7.48 7.48 0 1 0 -14.96 0zM544.14 421.9 a11.84 11.84 0 1 0 23.68 0 a11.84 11.84 0 1 0 -23.68 0z" fill="#2672c3" fill-rule="nonzero"></path><path d="M436.27 90.7L436.27 93.49L452.05 93.49L452.05 90.7zM447.1 92.09 a4.95 4.95 0 1 0 9.9 0 a4.95 4.95 0 1 0 -9.9 0zM432.74 111.23L431.67 113.81L453.17 122.72L454.24 120.13zM448.76 121.43 a4.95 4.95 0 1 0 9.9 0 a4.95 4.95 0 1 0 -9.9 0zM421.62 128.85L419.65 130.83L425.53 136.71L427.51 134.73zM421.57 135.72 a4.95 4.95 0 1 0 9.9 0 a4.95 4.95 0 1 0 -9.9 0zM404.61 140.87L402.03 141.94L406.09 151.75L408.67 150.68zM402.43 151.22 a4.95 4.95 0 1 0 9.9 0 a4.95 4.95 0 1 0 -9.9 0zM384.29 145.47L381.49 145.47L381.49 152.71L384.29 152.71zM377.94 152.71 a4.95 4.95 0 1 0 9.9 0 a4.95 4.95 0 1 0 -9.9 0zM363.76 141.94L361.17 140.87L358.39 147.59L360.98 148.66zM354.73 148.12 a4.95 4.95 0 1 0 9.9 0 a4.95 4.95 0 1 0 -9.9 0zM346.14 130.83L344.16 128.85L330.41 142.6L332.38 144.58zM326.45 143.59 a4.95 4.95 0 1 0 9.9 0 a4.95 4.95 0 1 0 -9.9 0zM334.11 113.81L333.04 111.23L321.3 116.09L322.37 118.68zM316.89 117.38 a4.95 4.95 0 1 0 9.9 0 a4.95 4.95 0 1 0 -9.9 0zM329.52 93.49L329.52 90.7L316.8 90.7L316.8 93.49zM311.85 92.09 a4.95 4.95 0 1 0 9.9 0 a4.95 4.95 0 1 0 -9.9 0zM333.04 72.96L334.11 70.38L311.62 61.06L310.55 63.64zM306.13 62.35 a4.95 4.95 0 1 0 9.9 0 a4.95 4.95 0 1 0 -9.9 0zM344.16 55.34L346.14 53.36L335.74 42.97L333.77 44.94zM329.81 43.96 a4.95 4.95 0 1 0 9.9 0 a4.95 4.95 0 1 0 -9.9 0zM361.17 43.31L363.76 42.25L360.35 34.02L357.77 35.09zM354.11 34.56 a4.95 4.95 0 1 0 9.9 0 a4.95 4.95 0 1 0 -9.9 0zM381.49 38.72L384.29 38.72L384.29 26.61L381.49 26.61zM377.94 26.61 a4.95 4.95 0 1 0 9.9 0 a4.95 4.95 0 1 0 -9.9 0zM402.03 42.25L404.61 43.31L407.53 36.27L404.95 35.2zM401.29 35.73 a4.95 4.95 0 1 0 9.9 0 a4.95 4.95 0 1 0 -9.9 0zM419.65 53.36L421.62 55.34L426.86 50.1L424.89 48.12zM420.93 49.11 a4.95 4.95 0 1 0 9.9 0 a4.95 4.95 0 1 0 -9.9 0zM431.67 70.38L432.74 72.96L447.28 66.94L446.21 64.35zM441.8 65.64 a4.95 4.95 0 1 0 9.9 0 a4.95 4.95 0 1 0 -9.9 0zM329.49 92.09 a53.4 53.4 0 1 0 106.8 0 a53.4 53.4 0 1 0 -106.8 0z" fill="#488fdb"></path><path d="M395.38 144.01 A52.3952 52.3952 0 0 1 331.66 77.05M331.66 77.05 A106.7904 106.7904 0 0 0 395.38 144.01" fill="#2672c3" fill-rule="nonzero"></path><path d="M373.54 106.98 a10.68 10.68 0 1 0 21.36 0 a10.68 10.68 0 1 0 -21.36 0zM398.46 52.41 a7.48 7.48 0 1 0 14.96 0 a7.48 7.48 0 1 0 -14.96 0zM357.64 98.88 a3.2 3.2 0 1 0 6.4 0 a3.2 3.2 0 1 0 -6.4 0zM358.33 50.2 a8.01 8.01 0 1 0 16.02 0 a8.01 8.01 0 1 0 -16.02 0zM341.08 123.06 a4.81 4.81 0 1 0 9.62 0 a4.81 4.81 0 1 0 -9.62 0zM333.44 74.1 a10.15 10.15 0 1 0 20.3 0 a10.15 10.15 0 1 0 -20.3 0zM413.37 73.21 a6.41 6.41 0 1 0 12.82 0 a6.41 6.41 0 1 0 -12.82 0zM376.82 80.43 a4.81 4.81 0 1 0 9.62 0 a4.81 4.81 0 1 0 -9.62 0zM360.39 137.5 a4.27 4.27 0 1 0 8.54 0 a4.27 4.27 0 1 0 -8.54 0zM393.87 130.41 a7.48 7.48 0 1 0 14.96 0 a7.48 7.48 0 1 0 -14.96 0z" fill="#2672c3" fill-rule="nonzero"></path><path d="M196.1 144.32L196.1 147.12L213.94 147.12L213.94 144.32zM208.99 145.72 a4.95 4.95 0 1 0 9.9 0 a4.95 4.95 0 1 0 -9.9 0zM192.58 164.86L191.51 167.44L210.06 175.12L211.13 172.54zM205.64 173.83 a4.95 4.95 0 1 0 9.9 0 a4.95 4.95 0 1 0 -9.9 0zM181.46 182.48L179.48 184.45L196.01 200.98L197.99 199.01zM192.05 200 a4.95 4.95 0 1 0 9.9 0 a4.95 4.95 0 1 0 -9.9 0zM164.44 194.5L161.86 195.57L168.11 210.65L170.69 209.58zM164.45 210.11 a4.95 4.95 0 1 0 9.9 0 a4.95 4.95 0 1 0 -9.9 0zM144.12 199.1L141.33 199.1L141.33 207.26L144.12 207.26zM137.78 207.26 a4.95 4.95 0 1 0 9.9 0 a4.95 4.95 0 1 0 -9.9 0zM123.59 195.57L121.01 194.5L112.11 215.98L114.69 217.05zM108.45 216.52 a4.95 4.95 0 1 0 9.9 0 a4.95 4.95 0 1 0 -9.9 0zM105.97 184.45L104 182.48L92.29 194.18L94.27 196.16zM88.33 195.17 a4.95 4.95 0 1 0 9.9 0 a4.95 4.95 0 1 0 -9.9 0zM93.95 167.44L92.88 164.86L84.5 168.33L85.57 170.91zM80.08 169.62 a4.95 4.95 0 1 0 9.9 0 a4.95 4.95 0 1 0 -9.9 0zM89.35 147.12L89.35 144.32L70.89 144.32L70.89 147.12zM65.94 145.72 a4.95 4.95 0 1 0 9.9 0 a4.95 4.95 0 1 0 -9.9 0zM92.88 126.59L93.95 124L80.79 118.55L79.72 121.14zM75.31 119.85 a4.95 4.95 0 1 0 9.9 0 a4.95 4.95 0 1 0 -9.9 0zM104 108.97L105.97 106.99L92.67 93.69L90.69 95.67zM86.73 94.68 a4.95 4.95 0 1 0 9.9 0 a4.95 4.95 0 1 0 -9.9 0zM121.01 96.94L123.59 95.87L120.69 88.86L118.1 89.93zM114.45 89.4 a4.95 4.95 0 1 0 9.9 0 a4.95 4.95 0 1 0 -9.9 0zM141.33 92.34L144.12 92.34L144.12 68.63L141.33 68.63zM137.78 68.63 a4.95 4.95 0 1 0 9.9 0 a4.95 4.95 0 1 0 -9.9 0zM161.86 95.87L164.44 96.94L172.18 78.27L169.6 77.2zM165.94 77.74 a4.95 4.95 0 1 0 9.9 0 a4.95 4.95 0 1 0 -9.9 0zM179.48 106.99L181.46 108.97L190.57 99.86L188.59 97.88zM184.63 98.87 a4.95 4.95 0 1 0 9.9 0 a4.95 4.95 0 1 0 -9.9 0zM191.51 124L192.58 126.59L202.68 122.4L201.61 119.82zM197.2 121.11 a4.95 4.95 0 1 0 9.9 0 a4.95 4.95 0 1 0 -9.9 0zM89.33 145.72 a53.4 53.4 0 1 0 106.8 0 a53.4 53.4 0 1 0 -106.8 0z" fill="#488fdb"></path><path d="M166.03 97.68 A52.3952 52.3952 0 0 1 172.77 189.86M172.77 189.86 A106.7904 106.7904 0 0 0 166.03 97.68" fill="#2672c3" fill-rule="nonzero"></path><path d="M188.6 158.97 a2.67 2.67 0 1 0 5.34 0 a2.67 2.67 0 1 0 -5.34 0zM102.78 140.31 a10.68 10.68 0 1 0 21.36 0 a10.68 10.68 0 1 0 -21.36 0zM175.39 119.64 a6.41 6.41 0 1 0 12.82 0 a6.41 6.41 0 1 0 -12.82 0zM131.93 183.52 a10.68 10.68 0 1 0 21.36 0 a10.68 10.68 0 1 0 -21.36 0zM132.94 156.69 a5.34 5.34 0 1 0 10.68 0 a5.34 5.34 0 1 0 -10.68 0zM117.07 114.68 a5.87 5.87 0 1 0 11.74 0 a5.87 5.87 0 1 0 -11.74 0zM165.52 184.53 a5.34 5.34 0 1 0 10.68 0 a5.34 5.34 0 1 0 -10.68 0zM138.48 133.63 a8.01 8.01 0 1 0 16.02 0 a8.01 8.01 0 1 0 -16.02 0zM163.24 165.97 a2.67 2.67 0 1 0 5.34 0 a2.67 2.67 0 1 0 -5.34 0zM166.61 102.14 a2.14 2.14 0 1 0 4.28 0 a2.14 2.14 0 1 0 -4.28 0z" fill="#2672c3" fill-rule="nonzero"></path><path d="M1114.38 216.82L1114.38 220.54L1127.51 220.54L1127.51 216.82zM1120.91 218.68 a6.6 6.6 0 1 0 13.2 0 a6.6 6.6 0 1 0 -13.2 0zM1109.67 244.19L1108.25 247.64L1135.6 258.97L1137.03 255.52zM1129.72 257.25 a6.6 6.6 0 1 0 13.2 0 a6.6 6.6 0 1 0 -13.2 0zM1094.85 267.69L1092.22 270.32L1100.46 278.57L1103.1 275.93zM1095.18 277.25 a6.6 6.6 0 1 0 13.2 0 a6.6 6.6 0 1 0 -13.2 0zM1072.17 283.72L1068.72 285.14L1078.6 308.99L1082.04 307.56zM1073.72 308.28 a6.6 6.6 0 1 0 13.2 0 a6.6 6.6 0 1 0 -13.2 0zM1045.07 289.85L1041.35 289.85L1041.35 302.8L1045.07 302.8zM1036.61 302.8 a6.6 6.6 0 1 0 13.2 0 a6.6 6.6 0 1 0 -13.2 0zM1017.7 285.14L1014.25 283.72L1009.4 295.44L1012.84 296.87zM1004.52 296.15 a6.6 6.6 0 1 0 13.2 0 a6.6 6.6 0 1 0 -13.2 0zM994.2 270.32L991.57 267.69L984.38 274.87L987.02 277.51zM979.1 276.19 a6.6 6.6 0 1 0 13.2 0 a6.6 6.6 0 1 0 -13.2 0zM978.17 247.64L976.74 244.19L952.99 254.03L954.42 257.47zM947.1 255.75 a6.6 6.6 0 1 0 13.2 0 a6.6 6.6 0 1 0 -13.2 0zM972.04 220.54L972.04 216.82L960 216.82L960 220.54zM953.4 218.68 a6.6 6.6 0 1 0 13.2 0 a6.6 6.6 0 1 0 -13.2 0zM976.74 193.17L978.17 189.72L967.66 185.37L966.23 188.81zM960.34 187.09 a6.6 6.6 0 1 0 13.2 0 a6.6 6.6 0 1 0 -13.2 0zM991.57 169.67L994.2 167.04L982.4 155.24L979.77 157.87zM974.48 156.55 a6.6 6.6 0 1 0 13.2 0 a6.6 6.6 0 1 0 -13.2 0zM1014.25 153.64L1017.7 152.21L1010.75 135.45L1007.31 136.87zM1002.43 136.16 a6.6 6.6 0 1 0 13.2 0 a6.6 6.6 0 1 0 -13.2 0zM1041.35 147.51L1045.07 147.51L1045.07 127.77L1041.35 127.77zM1036.61 127.77 a6.6 6.6 0 1 0 13.2 0 a6.6 6.6 0 1 0 -13.2 0zM1068.72 152.21L1072.17 153.64L1078.09 139.33L1074.65 137.9zM1069.77 138.62 a6.6 6.6 0 1 0 13.2 0 a6.6 6.6 0 1 0 -13.2 0zM1092.22 167.04L1094.85 169.67L1105.56 158.97L1102.92 156.33zM1097.64 157.65 a6.6 6.6 0 1 0 13.2 0 a6.6 6.6 0 1 0 -13.2 0zM1108.25 189.72L1109.67 193.17L1136.04 182.24L1134.62 178.8zM1128.73 180.52 a6.6 6.6 0 1 0 13.2 0 a6.6 6.6 0 1 0 -13.2 0zM972.02 218.68 a71.19 71.19 0 1 0 142.38 0 a71.19 71.19 0 1 0 -142.38 0z" fill="#488fdb"></path><path d="M1015.45 153.12 A70.1936 70.1936 0 0 1 1113.88 227.27M1113.88 227.27 A142.3872 142.3872 0 0 0 1015.45 153.12" fill="#2672c3" fill-rule="nonzero"></path><path d="M991.01 251.21 a14.24 14.24 0 1 0 28.48 0 a14.24 14.24 0 1 0 -28.48 0zM1024.7 188.19 a14.24 14.24 0 1 0 28.48 0 a14.24 14.24 0 1 0 -28.48 0zM974.81 209 a14.24 14.24 0 1 0 28.48 0 a14.24 14.24 0 1 0 -28.48 0zM1073.21 159.54 a2.85 2.85 0 1 0 5.7 0 a2.85 2.85 0 1 0 -5.7 0zM1075.44 233.74 a14.24 14.24 0 1 0 28.48 0 a14.24 14.24 0 1 0 -28.48 0zM1045.17 250.78 a9.97 9.97 0 1 0 19.94 0 a9.97 9.97 0 1 0 -19.94 0zM988.02 176.85 a3.56 3.56 0 1 0 7.12 0 a3.56 3.56 0 1 0 -7.12 0zM1009.12 168.66 a3.56 3.56 0 1 0 7.12 0 a3.56 3.56 0 1 0 -7.12 0zM1079.18 182.46 a7.83 7.83 0 1 0 15.66 0 a7.83 7.83 0 1 0 -15.66 0zM1054.85 213.82 a2.85 2.85 0 1 0 5.7 0 a2.85 2.85 0 1 0 -5.7 0z" fill="#2672c3" fill-rule="nonzero"></path><path d="M808.06 157.18L808.06 160.91L823.45 160.91L823.45 157.18zM816.85 159.05 a6.6 6.6 0 1 0 13.2 0 a6.6 6.6 0 1 0 -13.2 0zM803.36 184.56L801.93 188.01L810.32 191.48L811.75 188.04zM804.44 189.76 a6.6 6.6 0 1 0 13.2 0 a6.6 6.6 0 1 0 -13.2 0zM788.54 208.05L785.9 210.69L809.46 234.25L812.1 231.62zM804.18 232.93 a6.6 6.6 0 1 0 13.2 0 a6.6 6.6 0 1 0 -13.2 0zM765.85 224.09L762.41 225.51L773.16 251.47L776.6 250.04zM768.28 250.75 a6.6 6.6 0 1 0 13.2 0 a6.6 6.6 0 1 0 -13.2 0zM738.76 230.22L735.03 230.22L735.03 255.06L738.76 255.06zM730.3 255.06 a6.6 6.6 0 1 0 13.2 0 a6.6 6.6 0 1 0 -13.2 0zM711.38 225.51L707.94 224.09L695.34 254.49L698.79 255.92zM690.47 255.21 a6.6 6.6 0 1 0 13.2 0 a6.6 6.6 0 1 0 -13.2 0zM687.89 210.69L685.25 208.05L674.75 218.56L677.39 221.19zM669.47 219.87 a6.6 6.6 0 1 0 13.2 0 a6.6 6.6 0 1 0 -13.2 0zM671.86 188.01L670.43 184.56L655.88 190.59L657.31 194.03zM649.99 192.31 a6.6 6.6 0 1 0 13.2 0 a6.6 6.6 0 1 0 -13.2 0zM665.73 160.91L665.73 157.18L641.8 157.18L641.8 160.91zM635.2 159.05 a6.6 6.6 0 1 0 13.2 0 a6.6 6.6 0 1 0 -13.2 0zM670.43 133.53L671.86 130.09L642.09 117.76L640.66 121.2zM634.78 119.48 a6.6 6.6 0 1 0 13.2 0 a6.6 6.6 0 1 0 -13.2 0zM685.25 110.04L687.89 107.41L666.63 86.14L663.99 88.78zM658.71 87.46 a6.6 6.6 0 1 0 13.2 0 a6.6 6.6 0 1 0 -13.2 0zM707.94 94.01L711.38 92.58L707.03 82.09L703.59 83.51zM698.71 82.8 a6.6 6.6 0 1 0 13.2 0 a6.6 6.6 0 1 0 -13.2 0zM735.03 87.88L738.76 87.88L738.76 64.35L735.03 64.35zM730.3 64.35 a6.6 6.6 0 1 0 13.2 0 a6.6 6.6 0 1 0 -13.2 0zM762.41 92.58L765.85 94.01L774.77 72.47L771.33 71.05zM766.45 71.76 a6.6 6.6 0 1 0 13.2 0 a6.6 6.6 0 1 0 -13.2 0zM785.9 107.41L788.54 110.04L808.72 89.86L806.08 87.23zM800.8 88.54 a6.6 6.6 0 1 0 13.2 0 a6.6 6.6 0 1 0 -13.2 0zM801.93 130.09L803.36 133.53L829.31 122.79L827.89 119.34zM822 121.06 a6.6 6.6 0 1 0 13.2 0 a6.6 6.6 0 1 0 -13.2 0zM665.71 159.05 a71.19 71.19 0 1 0 142.38 0 a71.19 71.19 0 1 0 -142.38 0z" fill="#488fdb"></path><path d="M671.93 188.18 A70.1936 70.1936 0 0 1 744 88.21M744 88.21 A142.3872 142.3872 0 0 0 671.93 188.18" fill="#2672c3" fill-rule="nonzero"></path><path d="M721.19 188.13 a14.24 14.24 0 1 0 28.48 0 a14.24 14.24 0 1 0 -28.48 0zM712.53 124.84 a14.24 14.24 0 1 0 28.48 0 a14.24 14.24 0 1 0 -28.48 0zM666.52 149.95 a9.26 9.26 0 1 0 18.52 0 a9.26 9.26 0 1 0 -18.52 0zM794.69 171.91 a5.7 5.7 0 1 0 11.4 0 a5.7 5.7 0 1 0 -11.4 0zM695.33 171.02 a7.83 7.83 0 1 0 15.66 0 a7.83 7.83 0 1 0 -15.66 0zM760.07 168.62 a9.97 9.97 0 1 0 19.94 0 a9.97 9.97 0 1 0 -19.94 0zM759.31 206.38 a8.54 8.54 0 1 0 17.08 0 a8.54 8.54 0 1 0 -17.08 0zM774.76 140.1 a5.7 5.7 0 1 0 11.4 0 a5.7 5.7 0 1 0 -11.4 0zM671.49 185.77 a3.56 3.56 0 1 0 7.12 0 a3.56 3.56 0 1 0 -7.12 0zM702.69 207.45 a4.98 4.98 0 1 0 9.96 0 a4.98 4.98 0 1 0 -9.96 0z" fill="#2672c3" fill-rule="nonzero"></path><path d="M1372.9 145.62L1372.9 148.41L1386.31 148.41L1386.31 145.62zM1381.36 147.01 a4.95 4.95 0 1 0 9.9 0 a4.95 4.95 0 1 0 -9.9 0zM1369.37 166.15L1368.3 168.73L1375.41 171.68L1376.48 169.1zM1371 170.39 a4.95 4.95 0 1 0 9.9 0 a4.95 4.95 0 1 0 -9.9 0zM1358.25 183.77L1356.28 185.75L1371.78 201.25L1373.76 199.28zM1367.82 200.26 a4.95 4.95 0 1 0 9.9 0 a4.95 4.95 0 1 0 -9.9 0zM1341.24 195.79L1338.66 196.86L1341.28 203.19L1343.86 202.12zM1337.62 202.66 a4.95 4.95 0 1 0 9.9 0 a4.95 4.95 0 1 0 -9.9 0zM1320.92 200.39L1318.12 200.39L1318.12 208.4L1320.92 208.4zM1314.57 208.4 a4.95 4.95 0 1 0 9.9 0 a4.95 4.95 0 1 0 -9.9 0zM1300.39 196.86L1297.8 195.79L1291.37 211.32L1293.95 212.39zM1287.71 211.86 a4.95 4.95 0 1 0 9.9 0 a4.95 4.95 0 1 0 -9.9 0zM1282.77 185.75L1280.79 183.77L1266.34 198.22L1268.32 200.19zM1262.38 199.2 a4.95 4.95 0 1 0 9.9 0 a4.95 4.95 0 1 0 -9.9 0zM1270.74 168.73L1269.67 166.15L1252.97 173.07L1254.04 175.65zM1248.55 174.36 a4.95 4.95 0 1 0 9.9 0 a4.95 4.95 0 1 0 -9.9 0zM1266.14 148.41L1266.14 145.62L1250.53 145.62L1250.53 148.41zM1245.58 147.01 a4.95 4.95 0 1 0 9.9 0 a4.95 4.95 0 1 0 -9.9 0zM1269.67 127.88L1270.74 125.3L1261.65 121.53L1260.58 124.11zM1256.17 122.82 a4.95 4.95 0 1 0 9.9 0 a4.95 4.95 0 1 0 -9.9 0zM1280.79 110.26L1282.77 108.28L1271.3 96.82L1269.33 98.8zM1265.37 97.81 a4.95 4.95 0 1 0 9.9 0 a4.95 4.95 0 1 0 -9.9 0zM1297.8 98.24L1300.39 97.17L1291.84 76.53L1289.25 77.6zM1285.6 77.06 a4.95 4.95 0 1 0 9.9 0 a4.95 4.95 0 1 0 -9.9 0zM1318.12 93.64L1320.92 93.64L1320.92 68.64L1318.12 68.64zM1314.57 68.64 a4.95 4.95 0 1 0 9.9 0 a4.95 4.95 0 1 0 -9.9 0zM1338.66 97.17L1341.24 98.24L1348.92 79.69L1346.34 78.62zM1342.68 79.16 a4.95 4.95 0 1 0 9.9 0 a4.95 4.95 0 1 0 -9.9 0zM1356.28 108.28L1358.25 110.26L1367.62 100.89L1365.64 98.91zM1361.68 99.9 a4.95 4.95 0 1 0 9.9 0 a4.95 4.95 0 1 0 -9.9 0zM1368.3 125.3L1369.37 127.88L1381.27 122.95L1380.2 120.37zM1375.78 121.66 a4.95 4.95 0 1 0 9.9 0 a4.95 4.95 0 1 0 -9.9 0zM1266.12 147.01 a53.4 53.4 0 1 0 106.8 0 a53.4 53.4 0 1 0 -106.8 0z" fill="#488fdb"></path><path d="M1349.29 191.34 A52.3952 52.3952 0 0 1 1266.26 150.75M1266.26 150.75 A106.7904 106.7904 0 0 0 1349.29 191.34" fill="#2672c3" fill-rule="nonzero"></path><path d="M1279.67 113.8 a4.27 4.27 0 1 0 8.54 0 a4.27 4.27 0 1 0 -8.54 0zM1334.9 122 a10.68 10.68 0 1 0 21.36 0 a10.68 10.68 0 1 0 -21.36 0zM1273.82 152.4 a10.68 10.68 0 1 0 21.36 0 a10.68 10.68 0 1 0 -21.36 0zM1309.27 188.44 a10.68 10.68 0 1 0 21.36 0 a10.68 10.68 0 1 0 -21.36 0zM1309.1 97.55 a3.2 3.2 0 1 0 6.4 0 a3.2 3.2 0 1 0 -6.4 0zM1289.14 177.26 a5.34 5.34 0 1 0 10.68 0 a5.34 5.34 0 1 0 -10.68 0zM1293.44 129.94 a4.27 4.27 0 1 0 8.54 0 a4.27 4.27 0 1 0 -8.54 0zM1321.28 163.59 a3.74 3.74 0 1 0 7.48 0 a3.74 3.74 0 1 0 -7.48 0zM1338.54 156.57 a10.15 10.15 0 1 0 20.3 0 a10.15 10.15 0 1 0 -20.3 0zM1307.51 144.65 a6.94 6.94 0 1 0 13.88 0 a6.94 6.94 0 1 0 -13.88 0z" fill="#2672c3" fill-rule="nonzero"></path><path d="M303.68 432.83L303.68 436.56L325.04 436.56L325.04 432.83zM318.44 434.7 a6.6 6.6 0 1 0 13.2 0 a6.6 6.6 0 1 0 -13.2 0zM298.97 460.21L297.55 463.65L306.25 467.26L307.68 463.81zM300.36 465.54 a6.6 6.6 0 1 0 13.2 0 a6.6 6.6 0 1 0 -13.2 0zM284.15 483.7L281.52 486.34L301.13 505.95L303.77 503.32zM295.85 504.64 a6.6 6.6 0 1 0 13.2 0 a6.6 6.6 0 1 0 -13.2 0zM261.47 499.73L258.02 501.16L268.14 525.59L271.58 524.16zM263.26 524.88 a6.6 6.6 0 1 0 13.2 0 a6.6 6.6 0 1 0 -13.2 0zM234.37 505.87L230.65 505.87L230.65 518.72L234.37 518.72zM225.91 518.72 a6.6 6.6 0 1 0 13.2 0 a6.6 6.6 0 1 0 -13.2 0zM207 501.16L203.55 499.73L193.59 523.78L197.03 525.21zM188.71 524.5 a6.6 6.6 0 1 0 13.2 0 a6.6 6.6 0 1 0 -13.2 0zM183.5 486.34L180.87 483.7L163.73 500.84L166.36 503.48zM158.44 502.16 a6.6 6.6 0 1 0 13.2 0 a6.6 6.6 0 1 0 -13.2 0zM167.47 463.65L166.04 460.21L140.78 470.68L142.2 474.12zM134.89 472.4 a6.6 6.6 0 1 0 13.2 0 a6.6 6.6 0 1 0 -13.2 0zM161.34 436.56L161.34 432.83L143.26 432.83L143.26 436.56zM136.66 434.7 a6.6 6.6 0 1 0 13.2 0 a6.6 6.6 0 1 0 -13.2 0zM166.04 409.18L167.47 405.74L146.51 397.06L145.08 400.5zM139.19 398.78 a6.6 6.6 0 1 0 13.2 0 a6.6 6.6 0 1 0 -13.2 0zM180.87 385.69L183.5 383.05L176.55 376.1L173.92 378.74zM168.63 377.42 a6.6 6.6 0 1 0 13.2 0 a6.6 6.6 0 1 0 -13.2 0zM203.55 369.66L207 368.23L194.61 338.33L191.16 339.75zM186.29 339.04 a6.6 6.6 0 1 0 13.2 0 a6.6 6.6 0 1 0 -13.2 0zM230.65 363.53L234.37 363.53L234.37 329.39L230.65 329.39zM225.91 329.39 a6.6 6.6 0 1 0 13.2 0 a6.6 6.6 0 1 0 -13.2 0zM258.02 368.23L261.47 369.66L267.72 354.57L264.27 353.14zM259.39 353.86 a6.6 6.6 0 1 0 13.2 0 a6.6 6.6 0 1 0 -13.2 0zM281.52 383.05L284.15 385.69L295.67 374.17L293.03 371.54zM287.75 372.85 a6.6 6.6 0 1 0 13.2 0 a6.6 6.6 0 1 0 -13.2 0zM297.55 405.74L298.97 409.18L312.09 403.75L310.67 400.31zM304.78 402.03 a6.6 6.6 0 1 0 13.2 0 a6.6 6.6 0 1 0 -13.2 0zM161.32 434.7 a71.19 71.19 0 1 0 142.38 0 a71.19 71.19 0 1 0 -142.38 0z" fill="#488fdb"></path><path d="M283.79 385.31 A70.1936 70.1936 0 0 1 249.78 503.76M249.78 503.76 A142.3872 142.3872 0 0 0 283.79 385.31" fill="#2672c3" fill-rule="nonzero"></path><path d="M223.81 388.49 a14.24 14.24 0 1 0 28.48 0 a14.24 14.24 0 1 0 -28.48 0zM184.3 482.73 a9.26 9.26 0 1 0 18.52 0 a9.26 9.26 0 1 0 -18.52 0zM191.35 419.6 a14.24 14.24 0 1 0 28.48 0 a14.24 14.24 0 1 0 -28.48 0zM242.21 499.88 a4.27 4.27 0 1 0 8.54 0 a4.27 4.27 0 1 0 -8.54 0zM169.83 464.49 a3.56 3.56 0 1 0 7.12 0 a3.56 3.56 0 1 0 -7.12 0zM199.01 380.85 a5.7 5.7 0 1 0 11.4 0 a5.7 5.7 0 1 0 -11.4 0zM263.26 441.69 a14.24 14.24 0 1 0 28.48 0 a14.24 14.24 0 1 0 -28.48 0zM215.08 471.71 a4.98 4.98 0 1 0 9.96 0 a4.98 4.98 0 1 0 -9.96 0zM280.23 389.19 a2.85 2.85 0 1 0 5.7 0 a2.85 2.85 0 1 0 -5.7 0zM169.45 422.39 a3.56 3.56 0 1 0 7.12 0 a3.56 3.56 0 1 0 -7.12 0z" fill="#2672c3" fill-rule="nonzero"></path><path d="M1344.6 497.27L1344.6 499.14L1352.72 499.14L1352.72 497.27zM1349.42 498.21 a3.3 3.3 0 1 0 6.6 0 a3.3 3.3 0 1 0 -6.6 0zM1342.25 510.96L1341.54 512.68L1351.5 516.81L1352.21 515.09zM1348.55 515.95 a3.3 3.3 0 1 0 6.6 0 a3.3 3.3 0 1 0 -6.6 0zM1334.84 522.71L1333.52 524.03L1345.19 535.69L1346.51 534.38zM1342.55 535.03 a3.3 3.3 0 1 0 6.6 0 a3.3 3.3 0 1 0 -6.6 0zM1323.5 530.72L1321.78 531.44L1325.01 539.24L1326.73 538.52zM1322.57 538.88 a3.3 3.3 0 1 0 6.6 0 a3.3 3.3 0 1 0 -6.6 0zM1309.95 533.79L1308.09 533.79L1308.09 540.43L1309.95 540.43zM1305.72 540.43 a3.3 3.3 0 1 0 6.6 0 a3.3 3.3 0 1 0 -6.6 0zM1296.26 531.44L1294.54 530.72L1288.58 545.11L1290.3 545.82zM1286.14 545.47 a3.3 3.3 0 1 0 6.6 0 a3.3 3.3 0 1 0 -6.6 0zM1284.52 524.03L1283.2 522.71L1272.81 533.1L1274.13 534.41zM1270.17 533.75 a3.3 3.3 0 1 0 6.6 0 a3.3 3.3 0 1 0 -6.6 0zM1276.5 512.68L1275.79 510.96L1259.91 517.54L1260.62 519.26zM1256.96 518.4 a3.3 3.3 0 1 0 6.6 0 a3.3 3.3 0 1 0 -6.6 0zM1273.43 499.14L1273.43 497.27L1265.95 497.27L1265.95 499.14zM1262.65 498.21 a3.3 3.3 0 1 0 6.6 0 a3.3 3.3 0 1 0 -6.6 0zM1275.79 485.45L1276.5 483.73L1264.06 478.57L1263.34 480.29zM1260.4 479.43 a3.3 3.3 0 1 0 6.6 0 a3.3 3.3 0 1 0 -6.6 0zM1283.2 473.7L1284.52 472.38L1272.57 460.44L1271.26 461.76zM1268.61 461.1 a3.3 3.3 0 1 0 6.6 0 a3.3 3.3 0 1 0 -6.6 0zM1294.54 465.69L1296.26 464.97L1293.6 458.53L1291.87 459.25zM1289.43 458.89 a3.3 3.3 0 1 0 6.6 0 a3.3 3.3 0 1 0 -6.6 0zM1308.09 462.62L1309.95 462.62L1309.95 455.57L1308.09 455.57zM1305.72 455.57 a3.3 3.3 0 1 0 6.6 0 a3.3 3.3 0 1 0 -6.6 0zM1321.78 464.97L1323.5 465.69L1328.8 452.89L1327.08 452.18zM1324.64 452.53 a3.3 3.3 0 1 0 6.6 0 a3.3 3.3 0 1 0 -6.6 0zM1333.52 472.38L1334.84 473.7L1342.43 466.11L1341.11 464.8zM1338.47 465.46 a3.3 3.3 0 1 0 6.6 0 a3.3 3.3 0 1 0 -6.6 0zM1341.54 483.73L1342.25 485.45L1348.27 482.96L1347.55 481.24zM1344.61 482.1 a3.3 3.3 0 1 0 6.6 0 a3.3 3.3 0 1 0 -6.6 0zM1273.42 498.21 a35.6 35.6 0 1 0 71.2 0 a35.6 35.6 0 1 0 -71.2 0z" fill="#488fdb"></path><path d="M1279.32 478.59 A34.5968 34.5968 0 0 1 1340.83 482.22M1340.83 482.22 A71.1936 71.1936 0 0 0 1279.32 478.59" fill="#2672c3" fill-rule="nonzero"></path><path d="M1294.66 521.64 a7.12 7.12 0 1 0 14.24 0 a7.12 7.12 0 1 0 -14.24 0zM1322.21 491.36 a7.12 7.12 0 1 0 14.24 0 a7.12 7.12 0 1 0 -14.24 0zM1294.7 500.6 a6.76 6.76 0 1 0 13.52 0 a6.76 6.76 0 1 0 -13.52 0zM1315.96 517.99 a6.76 6.76 0 1 0 13.52 0 a6.76 6.76 0 1 0 -13.52 0zM1308.04 465.83 a2.85 2.85 0 1 0 5.7 0 a2.85 2.85 0 1 0 -5.7 0zM1325.28 475.76 a1.42 1.42 0 1 0 2.84 0 a1.42 1.42 0 1 0 -2.84 0zM1285.16 513.71 a2.14 2.14 0 1 0 4.28 0 a2.14 2.14 0 1 0 -4.28 0zM1298.24 479.36 a5.34 5.34 0 1 0 10.68 0 a5.34 5.34 0 1 0 -10.68 0zM1275.76 486.86 a6.05 6.05 0 1 0 12.1 0 a6.05 6.05 0 1 0 -12.1 0zM1289.69 470.57 a2.14 2.14 0 1 0 4.28 0 a2.14 2.14 0 1 0 -4.28 0z" fill="#2672c3" fill-rule="nonzero"></path><path d="M873.7 401.19L873.7 403.52L881.84 403.52L881.84 401.19zM877.71 402.36 a4.13 4.13 0 1 0 8.26 0 a4.13 4.13 0 1 0 -8.26 0zM870.76 418.3L869.86 420.45L875.58 422.82L876.47 420.67zM871.9 421.75 a4.13 4.13 0 1 0 8.26 0 a4.13 4.13 0 1 0 -8.26 0zM861.49 432.98L859.84 434.63L870.92 445.7L872.56 444.06zM867.61 444.88 a4.13 4.13 0 1 0 8.26 0 a4.13 4.13 0 1 0 -8.26 0zM847.31 443L845.16 443.9L853.54 464.12L855.69 463.23zM850.48 463.67 a4.13 4.13 0 1 0 8.26 0 a4.13 4.13 0 1 0 -8.26 0zM830.38 446.84L828.05 446.84L828.05 455.84L830.38 455.84zM825.08 455.84 a4.13 4.13 0 1 0 8.26 0 a4.13 4.13 0 1 0 -8.26 0zM813.27 443.9L811.12 443L804.27 459.54L806.42 460.43zM801.21 459.99 a4.13 4.13 0 1 0 8.26 0 a4.13 4.13 0 1 0 -8.26 0zM798.59 434.63L796.94 432.98L787.62 442.3L789.27 443.95zM784.31 443.13 a4.13 4.13 0 1 0 8.26 0 a4.13 4.13 0 1 0 -8.26 0zM788.57 420.45L787.67 418.3L770.4 425.46L771.29 427.61zM766.71 426.53 a4.13 4.13 0 1 0 8.26 0 a4.13 4.13 0 1 0 -8.26 0zM784.73 403.52L784.73 401.19L777.46 401.19L777.46 403.52zM773.33 402.36 a4.13 4.13 0 1 0 8.26 0 a4.13 4.13 0 1 0 -8.26 0zM787.67 386.41L788.57 384.26L779.93 380.68L779.04 382.83zM775.35 381.75 a4.13 4.13 0 1 0 8.26 0 a4.13 4.13 0 1 0 -8.26 0zM796.94 371.73L798.59 370.08L785.67 357.17L784.03 358.81zM780.72 357.99 a4.13 4.13 0 1 0 8.26 0 a4.13 4.13 0 1 0 -8.26 0zM811.12 361.71L813.27 360.81L807.11 345.94L804.96 346.83zM801.9 346.39 a4.13 4.13 0 1 0 8.26 0 a4.13 4.13 0 1 0 -8.26 0zM828.05 357.87L830.38 357.87L830.38 352.24L828.05 352.24zM825.08 352.24 a4.13 4.13 0 1 0 8.26 0 a4.13 4.13 0 1 0 -8.26 0zM845.16 360.81L847.31 361.71L849.75 355.81L847.6 354.92zM844.55 355.37 a4.13 4.13 0 1 0 8.26 0 a4.13 4.13 0 1 0 -8.26 0zM859.84 370.08L861.49 371.73L871.55 361.67L869.9 360.02zM866.59 360.85 a4.13 4.13 0 1 0 8.26 0 a4.13 4.13 0 1 0 -8.26 0zM869.86 384.26L870.76 386.41L885.32 380.37L884.43 378.22zM880.75 379.3 a4.13 4.13 0 1 0 8.26 0 a4.13 4.13 0 1 0 -8.26 0zM784.71 402.36 a44.5 44.5 0 1 0 89 0 a44.5 44.5 0 1 0 -89 0z" fill="#488fdb"></path><path d="M831.37 357.91 A43.496 43.496 0 0 1 866.68 426.36M866.68 426.36 A88.992 88.992 0 0 0 831.37 357.91" fill="#2672c3" fill-rule="nonzero"></path><path d="M842.5 407.64 a8.9 8.9 0 1 0 17.8 0 a8.9 8.9 0 1 0 -17.8 0zM803.11 378.32 a8.9 8.9 0 1 0 17.8 0 a8.9 8.9 0 1 0 -17.8 0zM826.22 363.85 a5.78 5.78 0 1 0 11.56 0 a5.78 5.78 0 1 0 -11.56 0zM823.92 394.29 a5.78 5.78 0 1 0 11.56 0 a5.78 5.78 0 1 0 -11.56 0zM820.23 413.36 a4.89 4.89 0 1 0 9.78 0 a4.89 4.89 0 1 0 -9.78 0zM826.89 438.57 a7.56 7.56 0 1 0 15.12 0 a7.56 7.56 0 1 0 -15.12 0zM787.66 416.11 a8.9 8.9 0 1 0 17.8 0 a8.9 8.9 0 1 0 -17.8 0zM810.59 430.68 a4.45 4.45 0 1 0 8.9 0 a4.45 4.45 0 1 0 -8.9 0zM839.59 382 a2.67 2.67 0 1 0 5.34 0 a2.67 2.67 0 1 0 -5.34 0zM809.53 398.12 a1.78 1.78 0 1 0 3.56 0 a1.78 1.78 0 1 0 -3.56 0z" fill="#2672c3" fill-rule="nonzero"></path></g><defs><mask id="SvgjsMask1000"><rect width="1440" height="560" fill="#ffffff"></rect></mask></defs></svg>