<svg xmlns="http://www.w3.org/2000/svg" version="1.1" xmlns:xlink="http://www.w3.org/1999/xlink" xmlns:svgjs="http://svgjs.com/svgjs" width="1440" height="560" preserveAspectRatio="none" viewBox="0 0 1440 560"><g mask="url(&quot;#SvgjsMask1008&quot;)" fill="none"><rect width="1440" height="560" x="0" y="0" fill="rgba(239, 163, 14, 1)"></rect><path d="M-86.95 379.72L-86.95 379.72" stroke="rgba(101, 87, 19, 1)" stroke-width="1.5"></path><path d="M-86.95 379.72L-89.41 490.51" stroke="rgba(101, 87, 19, 1)" stroke-width="1.5"></path><path d="M-86.95 379.72L42.67 356.12" stroke="rgba(101, 87, 19, 1)" stroke-width="1.5"></path><path d="M-86.95 379.72L87.56 559.55" stroke="rgba(101, 87, 19, 1)" stroke-width="1.5"></path><path d="M-86.95 379.72L-103.05 685.14" stroke="rgba(101, 87, 19, 1)" stroke-width="1.5"></path><path d="M-86.95 379.72L225.92 350.8" stroke="rgba(101, 87, 19, 1)" stroke-width="1.5"></path><path d="M-89.41 490.51L-89.41 490.51" stroke="rgba(101, 87, 19, 1)" stroke-width="1.5"></path><path d="M-89.41 490.51L42.67 356.12" stroke="rgba(101, 87, 19, 1)" stroke-width="1.5"></path><path d="M-89.41 490.51L87.56 559.55" stroke="rgba(101, 87, 19, 1)" stroke-width="1.5"></path><path d="M-103.05 685.14L-103.05 685.14" stroke="rgba(101, 87, 19, 1)" stroke-width="1.5"></path><path d="M-103.05 685.14L-89.41 490.51" stroke="rgba(101, 87, 19, 1)" stroke-width="1.5"></path><path d="M-103.05 685.14L87.56 559.55" stroke="rgba(101, 87, 19, 1)" stroke-width="1.5"></path><path d="M42.67 356.12L42.67 356.12" stroke="rgba(101, 87, 19, 1)" stroke-width="1.5"></path><path d="M42.67 356.12L225.92 350.8" stroke="rgba(101, 87, 19, 1)" stroke-width="1.5"></path><path d="M42.67 356.12L87.56 559.55" stroke="rgba(101, 87, 19, 1)" stroke-width="1.5"></path><path d="M87.56 559.55L87.56 559.55" stroke="rgba(101, 87, 19, 1)" stroke-width="1.5"></path><path d="M87.56 559.55L242.09 519.94" stroke="rgba(101, 87, 19, 1)" stroke-width="1.5"></path><path d="M87.56 559.55L230.51 696.95" stroke="rgba(101, 87, 19, 1)" stroke-width="1.5"></path><path d="M225.92 350.8L225.92 350.8" stroke="rgba(101, 87, 19, 1)" stroke-width="1.5"></path><path d="M225.92 350.8L242.09 519.94" stroke="rgba(101, 87, 19, 1)" stroke-width="1.5"></path><path d="M225.92 350.8L405.72 356.13" stroke="rgba(101, 87, 19, 1)" stroke-width="1.5"></path><path d="M225.92 350.8L356.64 539.47" stroke="rgba(101, 87, 19, 1)" stroke-width="1.5"></path><path d="M225.92 350.8L87.56 559.55" stroke="rgba(101, 87, 19, 1)" stroke-width="1.5"></path><path d="M225.92 350.8L488.56 371.92" stroke="rgba(101, 87, 19, 1)" stroke-width="1.5"></path><path d="M242.09 519.94L242.09 519.94" stroke="rgba(101, 87, 19, 1)" stroke-width="1.5"></path><path d="M242.09 519.94L356.64 539.47" stroke="rgba(101, 87, 19, 1)" stroke-width="1.5"></path><path d="M242.09 519.94L230.51 696.95" stroke="rgba(101, 87, 19, 1)" stroke-width="1.5"></path><path d="M242.09 519.94L383.29 701.49" stroke="rgba(101, 87, 19, 1)" stroke-width="1.5"></path><path d="M230.51 696.95L230.51 696.95" stroke="rgba(101, 87, 19, 1)" stroke-width="1.5"></path><path d="M230.51 696.95L383.29 701.49" stroke="rgba(101, 87, 19, 1)" stroke-width="1.5"></path><path d="M405.72 356.13L405.72 356.13" stroke="rgba(101, 87, 19, 1)" stroke-width="1.5"></path><path d="M405.72 356.13L488.56 371.92" stroke="rgba(101, 87, 19, 1)" stroke-width="1.5"></path><path d="M405.72 356.13L356.64 539.47" stroke="rgba(101, 87, 19, 1)" stroke-width="1.5"></path><path d="M356.64 539.47L356.64 539.47" stroke="rgba(101, 87, 19, 1)" stroke-width="1.5"></path><path d="M356.64 539.47L383.29 701.49" stroke="rgba(101, 87, 19, 1)" stroke-width="1.5"></path><path d="M356.64 539.47L545.81 489.36" stroke="rgba(101, 87, 19, 1)" stroke-width="1.5"></path><path d="M383.29 701.49L383.29 701.49" stroke="rgba(101, 87, 19, 1)" stroke-width="1.5"></path><path d="M383.29 701.49L534.85 652.9" stroke="rgba(101, 87, 19, 1)" stroke-width="1.5"></path><path d="M488.56 371.92L488.56 371.92" stroke="rgba(101, 87, 19, 1)" stroke-width="1.5"></path><path d="M545.81 489.36L545.81 489.36" stroke="rgba(101, 87, 19, 1)" stroke-width="1.5"></path><path d="M545.81 489.36L488.56 371.92" stroke="rgba(101, 87, 19, 1)" stroke-width="1.5"></path><path d="M545.81 489.36L700.86 537.36" stroke="rgba(101, 87, 19, 1)" stroke-width="1.5"></path><path d="M545.81 489.36L534.85 652.9" stroke="rgba(101, 87, 19, 1)" stroke-width="1.5"></path><path d="M545.81 489.36L405.72 356.13" stroke="rgba(101, 87, 19, 1)" stroke-width="1.5"></path><path d="M534.85 652.9L534.85 652.9" stroke="rgba(101, 87, 19, 1)" stroke-width="1.5"></path><path d="M534.85 652.9L671.49 676.32" stroke="rgba(101, 87, 19, 1)" stroke-width="1.5"></path><path d="M534.85 652.9L700.86 537.36" stroke="rgba(101, 87, 19, 1)" stroke-width="1.5"></path><path d="M534.85 652.9L356.64 539.47" stroke="rgba(101, 87, 19, 1)" stroke-width="1.5"></path><path d="M534.85 652.9L812.09 686.77" stroke="rgba(101, 87, 19, 1)" stroke-width="1.5"></path><path d="M660.55 239.45L660.55 239.45" stroke="rgba(101, 87, 19, 1)" stroke-width="1.5"></path><path d="M660.55 239.45L848.66 226.23" stroke="rgba(101, 87, 19, 1)" stroke-width="1.5"></path><path d="M660.55 239.45L488.56 371.92" stroke="rgba(101, 87, 19, 1)" stroke-width="1.5"></path><path d="M660.55 239.45L835.46 407.89" stroke="rgba(101, 87, 19, 1)" stroke-width="1.5"></path><path d="M660.55 239.45L545.81 489.36" stroke="rgba(101, 87, 19, 1)" stroke-width="1.5"></path><path d="M700.86 537.36L700.86 537.36" stroke="rgba(101, 87, 19, 1)" stroke-width="1.5"></path><path d="M700.86 537.36L798.26 507.78" stroke="rgba(101, 87, 19, 1)" stroke-width="1.5"></path><path d="M700.86 537.36L671.49 676.32" stroke="rgba(101, 87, 19, 1)" stroke-width="1.5"></path><path d="M700.86 537.36L812.09 686.77" stroke="rgba(101, 87, 19, 1)" stroke-width="1.5"></path><path d="M700.86 537.36L835.46 407.89" stroke="rgba(101, 87, 19, 1)" stroke-width="1.5"></path><path d="M671.49 676.32L671.49 676.32" stroke="rgba(101, 87, 19, 1)" stroke-width="1.5"></path><path d="M671.49 676.32L812.09 686.77" stroke="rgba(101, 87, 19, 1)" stroke-width="1.5"></path><path d="M671.49 676.32L798.26 507.78" stroke="rgba(101, 87, 19, 1)" stroke-width="1.5"></path><path d="M848.66 226.23L848.66 226.23" stroke="rgba(101, 87, 19, 1)" stroke-width="1.5"></path><path d="M848.66 226.23L996.82 222.97" stroke="rgba(101, 87, 19, 1)" stroke-width="1.5"></path><path d="M848.66 226.23L971.44 354.38" stroke="rgba(101, 87, 19, 1)" stroke-width="1.5"></path><path d="M848.66 226.23L835.46 407.89" stroke="rgba(101, 87, 19, 1)" stroke-width="1.5"></path><path d="M848.66 226.23L960.03 78.15" stroke="rgba(101, 87, 19, 1)" stroke-width="1.5"></path><path d="M835.46 407.89L835.46 407.89" stroke="rgba(101, 87, 19, 1)" stroke-width="1.5"></path><path d="M835.46 407.89L798.26 507.78" stroke="rgba(101, 87, 19, 1)" stroke-width="1.5"></path><path d="M835.46 407.89L971.44 354.38" stroke="rgba(101, 87, 19, 1)" stroke-width="1.5"></path><path d="M798.26 507.78L798.26 507.78" stroke="rgba(101, 87, 19, 1)" stroke-width="1.5"></path><path d="M798.26 507.78L812.09 686.77" stroke="rgba(101, 87, 19, 1)" stroke-width="1.5"></path><path d="M812.09 686.77L812.09 686.77" stroke="rgba(101, 87, 19, 1)" stroke-width="1.5"></path><path d="M812.09 686.77L974.71 708.18" stroke="rgba(101, 87, 19, 1)" stroke-width="1.5"></path><path d="M812.09 686.77L990.94 515.78" stroke="rgba(101, 87, 19, 1)" stroke-width="1.5"></path><path d="M1000.67 -100.74L1000.67 -100.74" stroke="rgba(101, 87, 19, 1)" stroke-width="1.5"></path><path d="M1000.67 -100.74L1114.89 -63.1" stroke="rgba(101, 87, 19, 1)" stroke-width="1.5"></path><path d="M1000.67 -100.74L960.03 78.15" stroke="rgba(101, 87, 19, 1)" stroke-width="1.5"></path><path d="M1000.67 -100.74L1157.14 75.63" stroke="rgba(101, 87, 19, 1)" stroke-width="1.5"></path><path d="M1000.67 -100.74L1249.1 38.6" stroke="rgba(101, 87, 19, 1)" stroke-width="1.5"></path><path d="M960.03 78.15L960.03 78.15" stroke="rgba(101, 87, 19, 1)" stroke-width="1.5"></path><path d="M960.03 78.15L996.82 222.97" stroke="rgba(101, 87, 19, 1)" stroke-width="1.5"></path><path d="M960.03 78.15L1157.14 75.63" stroke="rgba(101, 87, 19, 1)" stroke-width="1.5"></path><path d="M996.82 222.97L996.82 222.97" stroke="rgba(101, 87, 19, 1)" stroke-width="1.5"></path><path d="M996.82 222.97L971.44 354.38" stroke="rgba(101, 87, 19, 1)" stroke-width="1.5"></path><path d="M996.82 222.97L1158 198.2" stroke="rgba(101, 87, 19, 1)" stroke-width="1.5"></path><path d="M996.82 222.97L1116.97 358.88" stroke="rgba(101, 87, 19, 1)" stroke-width="1.5"></path><path d="M996.82 222.97L1157.14 75.63" stroke="rgba(101, 87, 19, 1)" stroke-width="1.5"></path><path d="M971.44 354.38L971.44 354.38" stroke="rgba(101, 87, 19, 1)" stroke-width="1.5"></path><path d="M971.44 354.38L1116.97 358.88" stroke="rgba(101, 87, 19, 1)" stroke-width="1.5"></path><path d="M971.44 354.38L990.94 515.78" stroke="rgba(101, 87, 19, 1)" stroke-width="1.5"></path><path d="M971.44 354.38L1105.69 538.65" stroke="rgba(101, 87, 19, 1)" stroke-width="1.5"></path><path d="M990.94 515.78L990.94 515.78" stroke="rgba(101, 87, 19, 1)" stroke-width="1.5"></path><path d="M990.94 515.78L1105.69 538.65" stroke="rgba(101, 87, 19, 1)" stroke-width="1.5"></path><path d="M974.71 708.18L974.71 708.18" stroke="rgba(101, 87, 19, 1)" stroke-width="1.5"></path><path d="M974.71 708.18L1130.43 648.98" stroke="rgba(101, 87, 19, 1)" stroke-width="1.5"></path><path d="M974.71 708.18L990.94 515.78" stroke="rgba(101, 87, 19, 1)" stroke-width="1.5"></path><path d="M974.71 708.18L1105.69 538.65" stroke="rgba(101, 87, 19, 1)" stroke-width="1.5"></path><path d="M974.71 708.18L798.26 507.78" stroke="rgba(101, 87, 19, 1)" stroke-width="1.5"></path><path d="M974.71 708.18L1267.19 708.43" stroke="rgba(101, 87, 19, 1)" stroke-width="1.5"></path><path d="M1114.89 -63.1L1114.89 -63.1" stroke="rgba(101, 87, 19, 1)" stroke-width="1.5"></path><path d="M1114.89 -63.1L1157.14 75.63" stroke="rgba(101, 87, 19, 1)" stroke-width="1.5"></path><path d="M1114.89 -63.1L1249.1 38.6" stroke="rgba(101, 87, 19, 1)" stroke-width="1.5"></path><path d="M1114.89 -63.1L1287.06 -68.43" stroke="rgba(101, 87, 19, 1)" stroke-width="1.5"></path><path d="M1157.14 75.63L1157.14 75.63" stroke="rgba(101, 87, 19, 1)" stroke-width="1.5"></path><path d="M1157.14 75.63L1249.1 38.6" stroke="rgba(101, 87, 19, 1)" stroke-width="1.5"></path><path d="M1157.14 75.63L1158 198.2" stroke="rgba(101, 87, 19, 1)" stroke-width="1.5"></path><path d="M1157.14 75.63L1294.82 188.22" stroke="rgba(101, 87, 19, 1)" stroke-width="1.5"></path><path d="M1157.14 75.63L1287.06 -68.43" stroke="rgba(101, 87, 19, 1)" stroke-width="1.5"></path><path d="M1158 198.2L1158 198.2" stroke="rgba(101, 87, 19, 1)" stroke-width="1.5"></path><path d="M1158 198.2L1294.82 188.22" stroke="rgba(101, 87, 19, 1)" stroke-width="1.5"></path><path d="M1158 198.2L1116.97 358.88" stroke="rgba(101, 87, 19, 1)" stroke-width="1.5"></path><path d="M1158 198.2L1249.1 38.6" stroke="rgba(101, 87, 19, 1)" stroke-width="1.5"></path><path d="M1158 198.2L1285.59 362.56" stroke="rgba(101, 87, 19, 1)" stroke-width="1.5"></path><path d="M1116.97 358.88L1116.97 358.88" stroke="rgba(101, 87, 19, 1)" stroke-width="1.5"></path><path d="M1116.97 358.88L1285.59 362.56" stroke="rgba(101, 87, 19, 1)" stroke-width="1.5"></path><path d="M1116.97 358.88L1105.69 538.65" stroke="rgba(101, 87, 19, 1)" stroke-width="1.5"></path><path d="M1116.97 358.88L990.94 515.78" stroke="rgba(101, 87, 19, 1)" stroke-width="1.5"></path><path d="M1105.69 538.65L1105.69 538.65" stroke="rgba(101, 87, 19, 1)" stroke-width="1.5"></path><path d="M1105.69 538.65L1130.43 648.98" stroke="rgba(101, 87, 19, 1)" stroke-width="1.5"></path><path d="M1130.43 648.98L1130.43 648.98" stroke="rgba(101, 87, 19, 1)" stroke-width="1.5"></path><path d="M1130.43 648.98L1267.19 708.43" stroke="rgba(101, 87, 19, 1)" stroke-width="1.5"></path><path d="M1130.43 648.98L990.94 515.78" stroke="rgba(101, 87, 19, 1)" stroke-width="1.5"></path><path d="M1130.43 648.98L1265.91 496.2" stroke="rgba(101, 87, 19, 1)" stroke-width="1.5"></path><path d="M1287.06 -68.43L1287.06 -68.43" stroke="rgba(101, 87, 19, 1)" stroke-width="1.5"></path><path d="M1287.06 -68.43L1249.1 38.6" stroke="rgba(101, 87, 19, 1)" stroke-width="1.5"></path><path d="M1287.06 -68.43L1439.56 -110.04" stroke="rgba(101, 87, 19, 1)" stroke-width="1.5"></path><path d="M1249.1 38.6L1249.1 38.6" stroke="rgba(101, 87, 19, 1)" stroke-width="1.5"></path><path d="M1249.1 38.6L1294.82 188.22" stroke="rgba(101, 87, 19, 1)" stroke-width="1.5"></path><path d="M1294.82 188.22L1294.82 188.22" stroke="rgba(101, 87, 19, 1)" stroke-width="1.5"></path><path d="M1294.82 188.22L1429.63 236.55" stroke="rgba(101, 87, 19, 1)" stroke-width="1.5"></path><path d="M1294.82 188.22L1285.59 362.56" stroke="rgba(101, 87, 19, 1)" stroke-width="1.5"></path><path d="M1285.59 362.56L1285.59 362.56" stroke="rgba(101, 87, 19, 1)" stroke-width="1.5"></path><path d="M1285.59 362.56L1404.97 378.39" stroke="rgba(101, 87, 19, 1)" stroke-width="1.5"></path><path d="M1285.59 362.56L1265.91 496.2" stroke="rgba(101, 87, 19, 1)" stroke-width="1.5"></path><path d="M1265.91 496.2L1265.91 496.2" stroke="rgba(101, 87, 19, 1)" stroke-width="1.5"></path><path d="M1265.91 496.2L1105.69 538.65" stroke="rgba(101, 87, 19, 1)" stroke-width="1.5"></path><path d="M1265.91 496.2L1443.05 530.99" stroke="rgba(101, 87, 19, 1)" stroke-width="1.5"></path><path d="M1265.91 496.2L1404.97 378.39" stroke="rgba(101, 87, 19, 1)" stroke-width="1.5"></path><path d="M1265.91 496.2L1116.97 358.88" stroke="rgba(101, 87, 19, 1)" stroke-width="1.5"></path><path d="M1267.19 708.43L1267.19 708.43" stroke="rgba(101, 87, 19, 1)" stroke-width="1.5"></path><path d="M1267.19 708.43L1401.53 700.03" stroke="rgba(101, 87, 19, 1)" stroke-width="1.5"></path><path d="M1267.19 708.43L1265.91 496.2" stroke="rgba(101, 87, 19, 1)" stroke-width="1.5"></path><path d="M1267.19 708.43L1105.69 538.65" stroke="rgba(101, 87, 19, 1)" stroke-width="1.5"></path><path d="M1267.19 708.43L1443.05 530.99" stroke="rgba(101, 87, 19, 1)" stroke-width="1.5"></path><path d="M1439.56 -110.04L1439.56 -110.04" stroke="rgba(101, 87, 19, 1)" stroke-width="1.5"></path><path d="M1439.56 -110.04L1575.89 -101.3" stroke="rgba(101, 87, 19, 1)" stroke-width="1.5"></path><path d="M1439.56 -110.04L1551.51 73.95" stroke="rgba(101, 87, 19, 1)" stroke-width="1.5"></path><path d="M1439.56 -110.04L1249.1 38.6" stroke="rgba(101, 87, 19, 1)" stroke-width="1.5"></path><path d="M1429.63 236.55L1429.63 236.55" stroke="rgba(101, 87, 19, 1)" stroke-width="1.5"></path><path d="M1429.63 236.55L1545.49 214.97" stroke="rgba(101, 87, 19, 1)" stroke-width="1.5"></path><path d="M1404.97 378.39L1404.97 378.39" stroke="rgba(101, 87, 19, 1)" stroke-width="1.5"></path><path d="M1404.97 378.39L1429.63 236.55" stroke="rgba(101, 87, 19, 1)" stroke-width="1.5"></path><path d="M1404.97 378.39L1443.05 530.99" stroke="rgba(101, 87, 19, 1)" stroke-width="1.5"></path><path d="M1404.97 378.39L1604.62 399.59" stroke="rgba(101, 87, 19, 1)" stroke-width="1.5"></path><path d="M1443.05 530.99L1443.05 530.99" stroke="rgba(101, 87, 19, 1)" stroke-width="1.5"></path><path d="M1443.05 530.99L1558.77 560.4" stroke="rgba(101, 87, 19, 1)" stroke-width="1.5"></path><path d="M1401.53 700.03L1401.53 700.03" stroke="rgba(101, 87, 19, 1)" stroke-width="1.5"></path><path d="M1401.53 700.03L1443.05 530.99" stroke="rgba(101, 87, 19, 1)" stroke-width="1.5"></path><path d="M1401.53 700.03L1558.77 560.4" stroke="rgba(101, 87, 19, 1)" stroke-width="1.5"></path><path d="M1401.53 700.03L1612.42 706.99" stroke="rgba(101, 87, 19, 1)" stroke-width="1.5"></path><path d="M1575.89 -101.3L1575.89 -101.3" stroke="rgba(101, 87, 19, 1)" stroke-width="1.5"></path><path d="M1575.89 -101.3L1551.51 73.95" stroke="rgba(101, 87, 19, 1)" stroke-width="1.5"></path><path d="M1575.89 -101.3L1287.06 -68.43" stroke="rgba(101, 87, 19, 1)" stroke-width="1.5"></path><path d="M1575.89 -101.3L1545.49 214.97" stroke="rgba(101, 87, 19, 1)" stroke-width="1.5"></path><path d="M1575.89 -101.3L1249.1 38.6" stroke="rgba(101, 87, 19, 1)" stroke-width="1.5"></path><path d="M1575.89 -101.3L1429.63 236.55" stroke="rgba(101, 87, 19, 1)" stroke-width="1.5"></path><path d="M1551.51 73.95L1551.51 73.95" stroke="rgba(101, 87, 19, 1)" stroke-width="1.5"></path><path d="M1551.51 73.95L1545.49 214.97" stroke="rgba(101, 87, 19, 1)" stroke-width="1.5"></path><path d="M1551.51 73.95L1429.63 236.55" stroke="rgba(101, 87, 19, 1)" stroke-width="1.5"></path><path d="M1551.51 73.95L1294.82 188.22" stroke="rgba(101, 87, 19, 1)" stroke-width="1.5"></path><path d="M1545.49 214.97L1545.49 214.97" stroke="rgba(101, 87, 19, 1)" stroke-width="1.5"></path><path d="M1604.62 399.59L1604.62 399.59" stroke="rgba(101, 87, 19, 1)" stroke-width="1.5"></path><path d="M1604.62 399.59L1558.77 560.4" stroke="rgba(101, 87, 19, 1)" stroke-width="1.5"></path><path d="M1604.62 399.59L1545.49 214.97" stroke="rgba(101, 87, 19, 1)" stroke-width="1.5"></path><path d="M1604.62 399.59L1443.05 530.99" stroke="rgba(101, 87, 19, 1)" stroke-width="1.5"></path><path d="M1604.62 399.59L1429.63 236.55" stroke="rgba(101, 87, 19, 1)" stroke-width="1.5"></path><path d="M1558.77 560.4L1558.77 560.4" stroke="rgba(101, 87, 19, 1)" stroke-width="1.5"></path><path d="M1558.77 560.4L1612.42 706.99" stroke="rgba(101, 87, 19, 1)" stroke-width="1.5"></path><path d="M1558.77 560.4L1404.97 378.39" stroke="rgba(101, 87, 19, 1)" stroke-width="1.5"></path><path d="M1558.77 560.4L1265.91 496.2" stroke="rgba(101, 87, 19, 1)" stroke-width="1.5"></path><path d="M1612.42 706.99L1612.42 706.99" stroke="rgba(101, 87, 19, 1)" stroke-width="1.5"></path><path d="M1612.42 706.99L1443.05 530.99" stroke="rgba(101, 87, 19, 1)" stroke-width="1.5"></path><path d="M1612.42 706.99L1604.62 399.59" stroke="rgba(101, 87, 19, 1)" stroke-width="1.5"></path><circle r="5" cx="-86.95" cy="379.72" fill="rgba(101, 87, 19, 1)"></circle><circle r="5" cx="-89.41" cy="490.51" fill="rgba(101, 87, 19, 1)"></circle><circle r="5" cx="-103.05" cy="685.14" fill="rgba(101, 87, 19, 1)"></circle><circle r="5" cx="42.67" cy="356.12" fill="rgba(101, 87, 19, 1)"></circle><circle r="5" cx="87.56" cy="559.55" fill="rgba(101, 87, 19, 1)"></circle><circle r="5" cx="225.92" cy="350.8" fill="rgba(101, 87, 19, 1)"></circle><circle r="5" cx="242.09" cy="519.94" fill="rgba(101, 87, 19, 1)"></circle><circle r="5" cx="230.51" cy="696.95" fill="rgba(101, 87, 19, 1)"></circle><circle r="5" cx="405.72" cy="356.13" fill="rgba(101, 87, 19, 1)"></circle><circle r="5" cx="356.64" cy="539.47" fill="rgba(101, 87, 19, 1)"></circle><circle r="5" cx="383.29" cy="701.49" fill="rgba(101, 87, 19, 1)"></circle><circle r="5" cx="488.56" cy="371.92" fill="rgba(101, 87, 19, 1)"></circle><circle r="5" cx="545.81" cy="489.36" fill="rgba(101, 87, 19, 1)"></circle><circle r="5" cx="534.85" cy="652.9" fill="rgba(101, 87, 19, 1)"></circle><circle r="5" cx="660.55" cy="239.45" fill="rgba(101, 87, 19, 1)"></circle><circle r="5" cx="700.86" cy="537.36" fill="rgba(101, 87, 19, 1)"></circle><circle r="5" cx="671.49" cy="676.32" fill="rgba(101, 87, 19, 1)"></circle><circle r="5" cx="848.66" cy="226.23" fill="rgba(101, 87, 19, 1)"></circle><circle r="5" cx="835.46" cy="407.89" fill="rgba(101, 87, 19, 1)"></circle><circle r="5" cx="798.26" cy="507.78" fill="rgba(101, 87, 19, 1)"></circle><circle r="5" cx="812.09" cy="686.77" fill="rgba(101, 87, 19, 1)"></circle><circle r="5" cx="1000.67" cy="-100.74" fill="rgba(101, 87, 19, 1)"></circle><circle r="5" cx="960.03" cy="78.15" fill="rgba(101, 87, 19, 1)"></circle><circle r="5" cx="996.82" cy="222.97" fill="rgba(101, 87, 19, 1)"></circle><circle r="5" cx="971.44" cy="354.38" fill="rgba(101, 87, 19, 1)"></circle><circle r="5" cx="990.94" cy="515.78" fill="rgba(101, 87, 19, 1)"></circle><circle r="5" cx="974.71" cy="708.18" fill="rgba(101, 87, 19, 1)"></circle><circle r="5" cx="1114.89" cy="-63.1" fill="rgba(101, 87, 19, 1)"></circle><circle r="5" cx="1157.14" cy="75.63" fill="rgba(101, 87, 19, 1)"></circle><circle r="5" cx="1158" cy="198.2" fill="rgba(101, 87, 19, 1)"></circle><circle r="5" cx="1116.97" cy="358.88" fill="rgba(101, 87, 19, 1)"></circle><circle r="5" cx="1105.69" cy="538.65" fill="rgba(101, 87, 19, 1)"></circle><circle r="5" cx="1130.43" cy="648.98" fill="rgba(101, 87, 19, 1)"></circle><circle r="5" cx="1287.06" cy="-68.43" fill="rgba(101, 87, 19, 1)"></circle><circle r="5" cx="1249.1" cy="38.6" fill="rgba(101, 87, 19, 1)"></circle><circle r="5" cx="1294.82" cy="188.22" fill="rgba(101, 87, 19, 1)"></circle><circle r="5" cx="1285.59" cy="362.56" fill="rgba(101, 87, 19, 1)"></circle><circle r="5" cx="1265.91" cy="496.2" fill="rgba(101, 87, 19, 1)"></circle><circle r="5" cx="1267.19" cy="708.43" fill="rgba(101, 87, 19, 1)"></circle><circle r="5" cx="1439.56" cy="-110.04" fill="rgba(101, 87, 19, 1)"></circle><circle r="5" cx="1429.63" cy="236.55" fill="rgba(101, 87, 19, 1)"></circle><circle r="5" cx="1404.97" cy="378.39" fill="rgba(101, 87, 19, 1)"></circle><circle r="5" cx="1443.05" cy="530.99" fill="rgba(101, 87, 19, 1)"></circle><circle r="5" cx="1401.53" cy="700.03" fill="rgba(101, 87, 19, 1)"></circle><circle r="5" cx="1575.89" cy="-101.3" fill="rgba(101, 87, 19, 1)"></circle><circle r="5" cx="1551.51" cy="73.95" fill="rgba(101, 87, 19, 1)"></circle><circle r="5" cx="1545.49" cy="214.97" fill="rgba(101, 87, 19, 1)"></circle><circle r="5" cx="1604.62" cy="399.59" fill="rgba(101, 87, 19, 1)"></circle><circle r="5" cx="1558.77" cy="560.4" fill="rgba(101, 87, 19, 1)"></circle><circle r="5" cx="1612.42" cy="706.99" fill="rgba(101, 87, 19, 1)"></circle><path d="M837.48 348.57L837.48 348.57" stroke="hsl(26.30000000000001, 68.6%, 17.8%)" stroke-width="1.5"></path><path d="M837.48 348.57L956.29 403.62" stroke="hsl(26.30000000000001, 68.6%, 17.8%)" stroke-width="1.5"></path><path d="M837.48 348.57L808.66 544.89" stroke="hsl(26.30000000000001, 68.6%, 17.8%)" stroke-width="1.5"></path><path d="M837.48 348.57L638.3 409.68" stroke="hsl(26.30000000000001, 68.6%, 17.8%)" stroke-width="1.5"></path><path d="M837.48 348.57L678.78 489.82" stroke="hsl(26.30000000000001, 68.6%, 17.8%)" stroke-width="1.5"></path><path d="M837.48 348.57L1110.2 360.46" stroke="hsl(26.30000000000001, 68.6%, 17.8%)" stroke-width="1.5"></path><path d="M837.48 348.57L1119.54 254.89" stroke="hsl(26.30000000000001, 68.6%, 17.8%)" stroke-width="1.5"></path><path d="M1301.56 -90.21L1301.56 -90.21" stroke="hsl(26.30000000000001, 68.6%, 17.8%)" stroke-width="1.5"></path><path d="M1301.56 -90.21L1457.25 -82.05" stroke="hsl(26.30000000000001, 68.6%, 17.8%)" stroke-width="1.5"></path><path d="M1441.38 492.56L1441.38 492.56" stroke="hsl(26.30000000000001, 68.6%, 17.8%)" stroke-width="1.5"></path><path d="M1441.38 492.56L1452.78 387.1" stroke="hsl(26.30000000000001, 68.6%, 17.8%)" stroke-width="1.5"></path><path d="M1441.38 492.56L1556.21 500.65" stroke="hsl(26.30000000000001, 68.6%, 17.8%)" stroke-width="1.5"></path><path d="M1441.38 492.56L1418.35 643.11" stroke="hsl(26.30000000000001, 68.6%, 17.8%)" stroke-width="1.5"></path><path d="M1441.38 492.56L1286.95 561.9" stroke="hsl(26.30000000000001, 68.6%, 17.8%)" stroke-width="1.5"></path><path d="M1441.38 492.56L1247.15 374.08" stroke="hsl(26.30000000000001, 68.6%, 17.8%)" stroke-width="1.5"></path><path d="M1441.38 492.56L1556.34 692.04" stroke="hsl(26.30000000000001, 68.6%, 17.8%)" stroke-width="1.5"></path><path d="M-52.83 522.96L-52.83 522.96" stroke="hsl(26.30000000000001, 68.6%, 17.8%)" stroke-width="1.5"></path><path d="M-52.83 522.96L101.51 558.47" stroke="hsl(26.30000000000001, 68.6%, 17.8%)" stroke-width="1.5"></path><path d="M-52.83 522.96L62.64 690.3" stroke="hsl(26.30000000000001, 68.6%, 17.8%)" stroke-width="1.5"></path><path d="M-52.83 522.96L202.01 534.3" stroke="hsl(26.30000000000001, 68.6%, 17.8%)" stroke-width="1.5"></path><path d="M-52.83 522.96L227.48 642.66" stroke="hsl(26.30000000000001, 68.6%, 17.8%)" stroke-width="1.5"></path><path d="M-52.83 522.96L358.44 641.37" stroke="hsl(26.30000000000001, 68.6%, 17.8%)" stroke-width="1.5"></path><path d="M101.51 558.47L101.51 558.47" stroke="hsl(26.30000000000001, 68.6%, 17.8%)" stroke-width="1.5"></path><path d="M101.51 558.47L202.01 534.3" stroke="hsl(26.30000000000001, 68.6%, 17.8%)" stroke-width="1.5"></path><path d="M101.51 558.47L62.64 690.3" stroke="hsl(26.30000000000001, 68.6%, 17.8%)" stroke-width="1.5"></path><path d="M101.51 558.47L227.48 642.66" stroke="hsl(26.30000000000001, 68.6%, 17.8%)" stroke-width="1.5"></path><path d="M101.51 558.47L358.44 641.37" stroke="hsl(26.30000000000001, 68.6%, 17.8%)" stroke-width="1.5"></path><path d="M62.64 690.3L62.64 690.3" stroke="hsl(26.30000000000001, 68.6%, 17.8%)" stroke-width="1.5"></path><path d="M62.64 690.3L227.48 642.66" stroke="hsl(26.30000000000001, 68.6%, 17.8%)" stroke-width="1.5"></path><path d="M62.64 690.3L202.01 534.3" stroke="hsl(26.30000000000001, 68.6%, 17.8%)" stroke-width="1.5"></path><path d="M62.64 690.3L358.44 641.37" stroke="hsl(26.30000000000001, 68.6%, 17.8%)" stroke-width="1.5"></path><path d="M202.01 534.3L202.01 534.3" stroke="hsl(26.30000000000001, 68.6%, 17.8%)" stroke-width="1.5"></path><path d="M202.01 534.3L227.48 642.66" stroke="hsl(26.30000000000001, 68.6%, 17.8%)" stroke-width="1.5"></path><path d="M202.01 534.3L387.98 510.73" stroke="hsl(26.30000000000001, 68.6%, 17.8%)" stroke-width="1.5"></path><path d="M202.01 534.3L358.44 641.37" stroke="hsl(26.30000000000001, 68.6%, 17.8%)" stroke-width="1.5"></path><path d="M227.48 642.66L227.48 642.66" stroke="hsl(26.30000000000001, 68.6%, 17.8%)" stroke-width="1.5"></path><path d="M227.48 642.66L358.44 641.37" stroke="hsl(26.30000000000001, 68.6%, 17.8%)" stroke-width="1.5"></path><path d="M227.48 642.66L387.98 510.73" stroke="hsl(26.30000000000001, 68.6%, 17.8%)" stroke-width="1.5"></path><path d="M387.98 510.73L387.98 510.73" stroke="hsl(26.30000000000001, 68.6%, 17.8%)" stroke-width="1.5"></path><path d="M387.98 510.73L507.25 497.36" stroke="hsl(26.30000000000001, 68.6%, 17.8%)" stroke-width="1.5"></path><path d="M387.98 510.73L358.44 641.37" stroke="hsl(26.30000000000001, 68.6%, 17.8%)" stroke-width="1.5"></path><path d="M387.98 510.73L529.49 697.56" stroke="hsl(26.30000000000001, 68.6%, 17.8%)" stroke-width="1.5"></path><path d="M358.44 641.37L358.44 641.37" stroke="hsl(26.30000000000001, 68.6%, 17.8%)" stroke-width="1.5"></path><path d="M358.44 641.37L529.49 697.56" stroke="hsl(26.30000000000001, 68.6%, 17.8%)" stroke-width="1.5"></path><path d="M358.44 641.37L507.25 497.36" stroke="hsl(26.30000000000001, 68.6%, 17.8%)" stroke-width="1.5"></path><path d="M507.25 497.36L507.25 497.36" stroke="hsl(26.30000000000001, 68.6%, 17.8%)" stroke-width="1.5"></path><path d="M507.25 497.36L638.3 409.68" stroke="hsl(26.30000000000001, 68.6%, 17.8%)" stroke-width="1.5"></path><path d="M507.25 497.36L678.78 489.82" stroke="hsl(26.30000000000001, 68.6%, 17.8%)" stroke-width="1.5"></path><path d="M507.25 497.36L529.49 697.56" stroke="hsl(26.30000000000001, 68.6%, 17.8%)" stroke-width="1.5"></path><path d="M507.25 497.36L662.72 695.68" stroke="hsl(26.30000000000001, 68.6%, 17.8%)" stroke-width="1.5"></path><path d="M529.49 697.56L529.49 697.56" stroke="hsl(26.30000000000001, 68.6%, 17.8%)" stroke-width="1.5"></path><path d="M529.49 697.56L662.72 695.68" stroke="hsl(26.30000000000001, 68.6%, 17.8%)" stroke-width="1.5"></path><path d="M529.49 697.56L678.78 489.82" stroke="hsl(26.30000000000001, 68.6%, 17.8%)" stroke-width="1.5"></path><path d="M638.3 409.68L638.3 409.68" stroke="hsl(26.30000000000001, 68.6%, 17.8%)" stroke-width="1.5"></path><path d="M638.3 409.68L678.78 489.82" stroke="hsl(26.30000000000001, 68.6%, 17.8%)" stroke-width="1.5"></path><path d="M638.3 409.68L808.66 544.89" stroke="hsl(26.30000000000001, 68.6%, 17.8%)" stroke-width="1.5"></path><path d="M638.3 409.68L387.98 510.73" stroke="hsl(26.30000000000001, 68.6%, 17.8%)" stroke-width="1.5"></path><path d="M638.3 409.68L662.72 695.68" stroke="hsl(26.30000000000001, 68.6%, 17.8%)" stroke-width="1.5"></path><path d="M678.78 489.82L678.78 489.82" stroke="hsl(26.30000000000001, 68.6%, 17.8%)" stroke-width="1.5"></path><path d="M678.78 489.82L808.66 544.89" stroke="hsl(26.30000000000001, 68.6%, 17.8%)" stroke-width="1.5"></path><path d="M662.72 695.68L662.72 695.68" stroke="hsl(26.30000000000001, 68.6%, 17.8%)" stroke-width="1.5"></path><path d="M662.72 695.68L678.78 489.82" stroke="hsl(26.30000000000001, 68.6%, 17.8%)" stroke-width="1.5"></path><path d="M662.72 695.68L808.66 544.89" stroke="hsl(26.30000000000001, 68.6%, 17.8%)" stroke-width="1.5"></path><path d="M808.66 544.89L808.66 544.89" stroke="hsl(26.30000000000001, 68.6%, 17.8%)" stroke-width="1.5"></path><path d="M808.66 544.89L956.29 403.62" stroke="hsl(26.30000000000001, 68.6%, 17.8%)" stroke-width="1.5"></path><path d="M956.29 403.62L956.29 403.62" stroke="hsl(26.30000000000001, 68.6%, 17.8%)" stroke-width="1.5"></path><path d="M956.29 403.62L1110.2 360.46" stroke="hsl(26.30000000000001, 68.6%, 17.8%)" stroke-width="1.5"></path><path d="M956.29 403.62L1119.54 254.89" stroke="hsl(26.30000000000001, 68.6%, 17.8%)" stroke-width="1.5"></path><path d="M1003.98 642.99L1003.98 642.99" stroke="hsl(26.30000000000001, 68.6%, 17.8%)" stroke-width="1.5"></path><path d="M1003.98 642.99L1143.05 679.96" stroke="hsl(26.30000000000001, 68.6%, 17.8%)" stroke-width="1.5"></path><path d="M1003.98 642.99L1147.53 525.67" stroke="hsl(26.30000000000001, 68.6%, 17.8%)" stroke-width="1.5"></path><path d="M1003.98 642.99L808.66 544.89" stroke="hsl(26.30000000000001, 68.6%, 17.8%)" stroke-width="1.5"></path><path d="M1003.98 642.99L956.29 403.62" stroke="hsl(26.30000000000001, 68.6%, 17.8%)" stroke-width="1.5"></path><path d="M1003.98 642.99L1289.89 699.85" stroke="hsl(26.30000000000001, 68.6%, 17.8%)" stroke-width="1.5"></path><path d="M1003.98 642.99L1286.95 561.9" stroke="hsl(26.30000000000001, 68.6%, 17.8%)" stroke-width="1.5"></path><path d="M1141.02 102.9L1141.02 102.9" stroke="hsl(26.30000000000001, 68.6%, 17.8%)" stroke-width="1.5"></path><path d="M1141.02 102.9L1274.94 78.45" stroke="hsl(26.30000000000001, 68.6%, 17.8%)" stroke-width="1.5"></path><path d="M1141.02 102.9L1119.54 254.89" stroke="hsl(26.30000000000001, 68.6%, 17.8%)" stroke-width="1.5"></path><path d="M1119.54 254.89L1119.54 254.89" stroke="hsl(26.30000000000001, 68.6%, 17.8%)" stroke-width="1.5"></path><path d="M1119.54 254.89L1110.2 360.46" stroke="hsl(26.30000000000001, 68.6%, 17.8%)" stroke-width="1.5"></path><path d="M1119.54 254.89L1247.15 374.08" stroke="hsl(26.30000000000001, 68.6%, 17.8%)" stroke-width="1.5"></path><path d="M1119.54 254.89L1310.05 220.24" stroke="hsl(26.30000000000001, 68.6%, 17.8%)" stroke-width="1.5"></path><path d="M1110.2 360.46L1110.2 360.46" stroke="hsl(26.30000000000001, 68.6%, 17.8%)" stroke-width="1.5"></path><path d="M1110.2 360.46L1247.15 374.08" stroke="hsl(26.30000000000001, 68.6%, 17.8%)" stroke-width="1.5"></path><path d="M1110.2 360.46L1147.53 525.67" stroke="hsl(26.30000000000001, 68.6%, 17.8%)" stroke-width="1.5"></path><path d="M1110.2 360.46L1310.05 220.24" stroke="hsl(26.30000000000001, 68.6%, 17.8%)" stroke-width="1.5"></path><path d="M1110.2 360.46L1141.02 102.9" stroke="hsl(26.30000000000001, 68.6%, 17.8%)" stroke-width="1.5"></path><path d="M1147.53 525.67L1147.53 525.67" stroke="hsl(26.30000000000001, 68.6%, 17.8%)" stroke-width="1.5"></path><path d="M1147.53 525.67L1286.95 561.9" stroke="hsl(26.30000000000001, 68.6%, 17.8%)" stroke-width="1.5"></path><path d="M1147.53 525.67L1143.05 679.96" stroke="hsl(26.30000000000001, 68.6%, 17.8%)" stroke-width="1.5"></path><path d="M1143.05 679.96L1143.05 679.96" stroke="hsl(26.30000000000001, 68.6%, 17.8%)" stroke-width="1.5"></path><path d="M1143.05 679.96L1289.89 699.85" stroke="hsl(26.30000000000001, 68.6%, 17.8%)" stroke-width="1.5"></path><path d="M1274.94 78.45L1274.94 78.45" stroke="hsl(26.30000000000001, 68.6%, 17.8%)" stroke-width="1.5"></path><path d="M1274.94 78.45L1417.07 55.92" stroke="hsl(26.30000000000001, 68.6%, 17.8%)" stroke-width="1.5"></path><path d="M1274.94 78.45L1310.05 220.24" stroke="hsl(26.30000000000001, 68.6%, 17.8%)" stroke-width="1.5"></path><path d="M1274.94 78.45L1301.56 -90.21" stroke="hsl(26.30000000000001, 68.6%, 17.8%)" stroke-width="1.5"></path><path d="M1310.05 220.24L1310.05 220.24" stroke="hsl(26.30000000000001, 68.6%, 17.8%)" stroke-width="1.5"></path><path d="M1310.05 220.24L1392.98 211.72" stroke="hsl(26.30000000000001, 68.6%, 17.8%)" stroke-width="1.5"></path><path d="M1310.05 220.24L1247.15 374.08" stroke="hsl(26.30000000000001, 68.6%, 17.8%)" stroke-width="1.5"></path><path d="M1310.05 220.24L1417.07 55.92" stroke="hsl(26.30000000000001, 68.6%, 17.8%)" stroke-width="1.5"></path><path d="M1310.05 220.24L1141.02 102.9" stroke="hsl(26.30000000000001, 68.6%, 17.8%)" stroke-width="1.5"></path><path d="M1247.15 374.08L1247.15 374.08" stroke="hsl(26.30000000000001, 68.6%, 17.8%)" stroke-width="1.5"></path><path d="M1247.15 374.08L1147.53 525.67" stroke="hsl(26.30000000000001, 68.6%, 17.8%)" stroke-width="1.5"></path><path d="M1286.95 561.9L1286.95 561.9" stroke="hsl(26.30000000000001, 68.6%, 17.8%)" stroke-width="1.5"></path><path d="M1286.95 561.9L1289.89 699.85" stroke="hsl(26.30000000000001, 68.6%, 17.8%)" stroke-width="1.5"></path><path d="M1286.95 561.9L1418.35 643.11" stroke="hsl(26.30000000000001, 68.6%, 17.8%)" stroke-width="1.5"></path><path d="M1289.89 699.85L1289.89 699.85" stroke="hsl(26.30000000000001, 68.6%, 17.8%)" stroke-width="1.5"></path><path d="M1289.89 699.85L1418.35 643.11" stroke="hsl(26.30000000000001, 68.6%, 17.8%)" stroke-width="1.5"></path><path d="M1289.89 699.85L1147.53 525.67" stroke="hsl(26.30000000000001, 68.6%, 17.8%)" stroke-width="1.5"></path><path d="M1457.25 -82.05L1457.25 -82.05" stroke="hsl(26.30000000000001, 68.6%, 17.8%)" stroke-width="1.5"></path><path d="M1457.25 -82.05L1574.14 -73.04" stroke="hsl(26.30000000000001, 68.6%, 17.8%)" stroke-width="1.5"></path><path d="M1457.25 -82.05L1417.07 55.92" stroke="hsl(26.30000000000001, 68.6%, 17.8%)" stroke-width="1.5"></path><path d="M1417.07 55.92L1417.07 55.92" stroke="hsl(26.30000000000001, 68.6%, 17.8%)" stroke-width="1.5"></path><path d="M1417.07 55.92L1556.69 48.9" stroke="hsl(26.30000000000001, 68.6%, 17.8%)" stroke-width="1.5"></path><path d="M1392.98 211.72L1392.98 211.72" stroke="hsl(26.30000000000001, 68.6%, 17.8%)" stroke-width="1.5"></path><path d="M1392.98 211.72L1417.07 55.92" stroke="hsl(26.30000000000001, 68.6%, 17.8%)" stroke-width="1.5"></path><path d="M1392.98 211.72L1274.94 78.45" stroke="hsl(26.30000000000001, 68.6%, 17.8%)" stroke-width="1.5"></path><path d="M1452.78 387.1L1452.78 387.1" stroke="hsl(26.30000000000001, 68.6%, 17.8%)" stroke-width="1.5"></path><path d="M1452.78 387.1L1556.21 500.65" stroke="hsl(26.30000000000001, 68.6%, 17.8%)" stroke-width="1.5"></path><path d="M1418.35 643.11L1418.35 643.11" stroke="hsl(26.30000000000001, 68.6%, 17.8%)" stroke-width="1.5"></path><path d="M1418.35 643.11L1556.34 692.04" stroke="hsl(26.30000000000001, 68.6%, 17.8%)" stroke-width="1.5"></path><path d="M1574.14 -73.04L1574.14 -73.04" stroke="hsl(26.30000000000001, 68.6%, 17.8%)" stroke-width="1.5"></path><path d="M1574.14 -73.04L1556.69 48.9" stroke="hsl(26.30000000000001, 68.6%, 17.8%)" stroke-width="1.5"></path><path d="M1574.14 -73.04L1417.07 55.92" stroke="hsl(26.30000000000001, 68.6%, 17.8%)" stroke-width="1.5"></path><path d="M1574.14 -73.04L1301.56 -90.21" stroke="hsl(26.30000000000001, 68.6%, 17.8%)" stroke-width="1.5"></path><path d="M1574.14 -73.04L1602.1 223.3" stroke="hsl(26.30000000000001, 68.6%, 17.8%)" stroke-width="1.5"></path><path d="M1556.69 48.9L1556.69 48.9" stroke="hsl(26.30000000000001, 68.6%, 17.8%)" stroke-width="1.5"></path><path d="M1556.69 48.9L1457.25 -82.05" stroke="hsl(26.30000000000001, 68.6%, 17.8%)" stroke-width="1.5"></path><path d="M1556.69 48.9L1602.1 223.3" stroke="hsl(26.30000000000001, 68.6%, 17.8%)" stroke-width="1.5"></path><path d="M1556.69 48.9L1392.98 211.72" stroke="hsl(26.30000000000001, 68.6%, 17.8%)" stroke-width="1.5"></path><path d="M1602.1 223.3L1602.1 223.3" stroke="hsl(26.30000000000001, 68.6%, 17.8%)" stroke-width="1.5"></path><path d="M1602.1 223.3L1392.98 211.72" stroke="hsl(26.30000000000001, 68.6%, 17.8%)" stroke-width="1.5"></path><path d="M1602.1 223.3L1452.78 387.1" stroke="hsl(26.30000000000001, 68.6%, 17.8%)" stroke-width="1.5"></path><path d="M1602.1 223.3L1417.07 55.92" stroke="hsl(26.30000000000001, 68.6%, 17.8%)" stroke-width="1.5"></path><path d="M1556.21 500.65L1556.21 500.65" stroke="hsl(26.30000000000001, 68.6%, 17.8%)" stroke-width="1.5"></path><path d="M1556.21 500.65L1556.34 692.04" stroke="hsl(26.30000000000001, 68.6%, 17.8%)" stroke-width="1.5"></path><path d="M1556.21 500.65L1418.35 643.11" stroke="hsl(26.30000000000001, 68.6%, 17.8%)" stroke-width="1.5"></path><path d="M1556.21 500.65L1286.95 561.9" stroke="hsl(26.30000000000001, 68.6%, 17.8%)" stroke-width="1.5"></path><path d="M1556.34 692.04L1556.34 692.04" stroke="hsl(26.30000000000001, 68.6%, 17.8%)" stroke-width="1.5"></path><path d="M1556.34 692.04L1289.89 699.85" stroke="hsl(26.30000000000001, 68.6%, 17.8%)" stroke-width="1.5"></path><circle r="25" cx="837.48" cy="348.57" fill="url(#SvgjsRadialGradient1009)"></circle><circle r="25" cx="1301.56" cy="-90.21" fill="url(#SvgjsRadialGradient1009)"></circle><circle r="25" cx="1441.38" cy="492.56" fill="url(#SvgjsRadialGradient1009)"></circle><circle r="5" cx="-52.83" cy="522.96" fill="#9d9085"></circle><circle r="5" cx="101.51" cy="558.47" fill="#9d9085"></circle><circle r="5" cx="62.64" cy="690.3" fill="#9d9085"></circle><circle r="5" cx="202.01" cy="534.3" fill="#9d9085"></circle><circle r="5" cx="227.48" cy="642.66" fill="#9d9085"></circle><circle r="5" cx="387.98" cy="510.73" fill="#9d9085"></circle><circle r="5" cx="358.44" cy="641.37" fill="#9d9085"></circle><circle r="5" cx="507.25" cy="497.36" fill="#9d9085"></circle><circle r="5" cx="529.49" cy="697.56" fill="#9d9085"></circle><circle r="5" cx="638.3" cy="409.68" fill="#9d9085"></circle><circle r="5" cx="678.78" cy="489.82" fill="#9d9085"></circle><circle r="5" cx="662.72" cy="695.68" fill="#9d9085"></circle><circle r="5" cx="808.66" cy="544.89" fill="#9d9085"></circle><circle r="5" cx="956.29" cy="403.62" fill="#9d9085"></circle><circle r="5" cx="1003.98" cy="642.99" fill="#9d9085"></circle><circle r="5" cx="1141.02" cy="102.9" fill="#9d9085"></circle><circle r="5" cx="1119.54" cy="254.89" fill="#9d9085"></circle><circle r="5" cx="1110.2" cy="360.46" fill="#9d9085"></circle><circle r="5" cx="1147.53" cy="525.67" fill="#9d9085"></circle><circle r="5" cx="1143.05" cy="679.96" fill="#9d9085"></circle><circle r="5" cx="1274.94" cy="78.45" fill="#9d9085"></circle><circle r="5" cx="1310.05" cy="220.24" fill="#9d9085"></circle><circle r="5" cx="1247.15" cy="374.08" fill="#9d9085"></circle><circle r="5" cx="1286.95" cy="561.9" fill="#9d9085"></circle><circle r="5" cx="1289.89" cy="699.85" fill="#9d9085"></circle><circle r="5" cx="1457.25" cy="-82.05" fill="#9d9085"></circle><circle r="5" cx="1417.07" cy="55.92" fill="#9d9085"></circle><circle r="5" cx="1392.98" cy="211.72" fill="#9d9085"></circle><circle r="5" cx="1452.78" cy="387.1" fill="#9d9085"></circle><circle r="5" cx="1418.35" cy="643.11" fill="#9d9085"></circle><circle r="5" cx="1574.14" cy="-73.04" fill="#9d9085"></circle><circle r="5" cx="1556.69" cy="48.9" fill="#9d9085"></circle><circle r="5" cx="1602.1" cy="223.3" fill="#9d9085"></circle><circle r="5" cx="1556.21" cy="500.65" fill="#9d9085"></circle><circle r="5" cx="1556.34" cy="692.04" fill="#9d9085"></circle></g><defs><mask id="SvgjsMask1008"><rect width="1440" height="560" fill="#ffffff"></rect></mask><radialGradient id="SvgjsRadialGradient1009"><stop stop-color="#ffffff" offset="0.1"></stop><stop stop-color="rgba(59, 32, 11, 1)" offset="0.2"></stop><stop stop-color="rgba(59, 32, 11, 0)" offset="1"></stop></radialGradient></defs></svg>